# xmcd
#
# Track frame offsets:
#	150
#	21732
#	47524
#	65638
#	80614
#	106053
#	122522
#	145275
#	164517
#	192882
#	207921
#	233896
#	252640
#	272115
#	302152
#
# Disc length: 4440 seconds
#
# Revision: 0
# Processed by: cddbd v1.4PL0 Copyright (c) Steve Scherf et al.
# Submitted via: dBpowerAMP V4.0
#
DISCID=de11560f
DTITLE=Vários Artistas - Emoções - Falando de Amor
DYEAR=2002
DGENRE=Hip-Hop
TTITLE0=Hey There Lonly Girl - John Halley
TTITLE1=Sarchin For Love - Maurice Lewis
TTITLE2=Always - T. Slave
TTITLE3=Tell Me If You Still Care - Paul Hallstron
TTITLE4=For The Love Of You - Brian Fery
TTITLE5=Have You Seen Her - Frank Darabout
TTITLE6=The Long To Be Close To You - Kevin Bennig
TTITLE7=Running In And Out Me - Jerry Spacey
TTITLE8=Float On - Kevin Kroler
TTITLE9=And Don't You Say No - David Khroep
TTITLE10=Super Woman - A. Waddington
TTITLE11=Special Lady - Alan Watson
TTITLE12=Caravan Of Love - M. Clarck
TTITLE13=Be All Right - Adams Scott
TTITLE14=Seasons For Girls - Tim Hotz
EXTD=
EXTT0=
EXTT1=
EXTT2=
EXTT3=
EXTT4=
EXTT5=
EXTT6=
EXTT7=
EXTT8=
EXTT9=
EXTT10=
EXTT11=
EXTT12=
EXTT13=
EXTT14=
PLAYORDER=
